<svg xmlns="http://www.w3.org/2000/svg" width="41.292" height="42.262" viewBox="0 0 41.292 42.262"><defs><style>.a{fill:#fff;}</style></defs><path class="a" d="M68.164,47.018H76.9a.619.619,0,0,0,0-1.238H68.164a1.336,1.336,0,0,0-1.334,1.334v2.254A1.336,1.336,0,0,0,68.164,50.7H88.106a1.336,1.336,0,0,0,1.334-1.334V47.114a1.336,1.336,0,0,0-1.334-1.334H79.372a.619.619,0,0,0,0,1.238h8.734a.1.1,0,0,1,.1.1v2.254a.1.1,0,0,1-.1.1H68.164a.1.1,0,0,1-.1-.1V47.114A.1.1,0,0,1,68.164,47.018Z" transform="translate(-61.801 -42.002)"/><path class="a" d="M102.307,130.427H83.6a.619.619,0,0,0,0,1.238h18.707a.619.619,0,0,0,0-1.238Z" transform="translate(-76.619 -119.665)"/><path class="a" d="M102.307,415.524a.619.619,0,1,0,0-1.238H83.6a.619.619,0,1,0,0,1.238Z" transform="translate(-76.619 -380.101)"/><path class="a" d="M213.246,209.907a6.473,6.473,0,1,0,0,9.154A6.48,6.48,0,0,0,213.246,209.907Zm-.875,8.279a5.238,5.238,0,0,1-8.479-1.558h7.792a.619.619,0,0,0,0-1.238h-8.17a5.247,5.247,0,0,1,.311-2.9h7.86a.619.619,0,0,0,0-1.238h-7.136a5.322,5.322,0,0,1,.419-.475,5.241,5.241,0,0,1,7.4,0h0A5.232,5.232,0,0,1,212.371,218.186Z" transform="translate(-185.996 -190.85)"/><path class="a" d="M440.915,445.8a.619.619,0,0,0-.875.875l.885.885a.619.619,0,1,0,.875-.875Z" transform="translate(-404.048 -408.85)"/><path class="a" d="M45.786,34.175l-.231-.231a.619.619,0,0,0-.875.875l.231.231a3.495,3.495,0,1,1-4.942,4.942L35.9,35.927a1.03,1.03,0,0,1,0-1.457l3-3h0l.484-.484a1.032,1.032,0,0,1,1.457,0l2.062,2.062a.619.619,0,0,0,.875-.875L41.72,30.109a2.271,2.271,0,0,0-3.208,0l-.047.047-1.977-1.977a.207.207,0,0,1-.03-.248,9.056,9.056,0,0,0,.578-7.3V1.457A1.459,1.459,0,0,0,35.579,0H7.335A1.459,1.459,0,0,0,5.878,1.457v32.9a.619.619,0,0,0,1.238,0V1.457a.22.22,0,0,1,.22-.22H35.579a.22.22,0,0,1,.22.22V18.3a9.125,9.125,0,0,0-.884-1.028,9,9,0,0,0-10.108-1.825H12.859a.619.619,0,0,0,0,1.238h9.976a9.18,9.18,0,0,0-.743.685,8.928,8.928,0,0,0-1.828,2.762H12.859a.619.619,0,0,0,0,1.238h6.989a9.133,9.133,0,0,0-.208,3.447H12.859a.619.619,0,1,0,0,1.238h7.03a8.9,8.9,0,0,0,1.84,3.447h-8.87a.619.619,0,1,0,0,1.238H23.033a9.037,9.037,0,0,0,9.818.8.206.206,0,0,1,.246.03l1.977,1.977a2.287,2.287,0,0,0-.711,1.651,2.253,2.253,0,0,0,.664,1.6l.772.772V40.8a.22.22,0,0,1-.22.22H7.335a.22.22,0,0,1-.22-.22V36.828a.619.619,0,0,0-1.238,0V40.8a1.459,1.459,0,0,0,1.457,1.457H35.579A1.459,1.459,0,0,0,37.036,40.8V38.812l2.057,2.057a4.733,4.733,0,0,0,6.693-6.693ZM33.972,30.7a1.435,1.435,0,0,0-1.713-.242,7.76,7.76,0,1,1,3.112-3.113,1.436,1.436,0,0,0,.242,1.715l1.977,1.977-1.641,1.641Z" transform="translate(-5.878 0)"/></svg>