<svg xmlns="http://www.w3.org/2000/svg" width="32.976" height="42.233" viewBox="0 0 32.976 42.233"><defs><style>.a{fill:#fff;}</style></defs><g transform="translate(11.902 13.224)"><path class="a" d="M201.025,160.322a.619.619,0,0,0-.619.619v.661a.619.619,0,1,0,1.237,0v-.661A.619.619,0,0,0,201.025,160.322Z" transform="translate(-200.406 -160.322)"/></g><g transform="translate(19.837 13.224)"><path class="a" d="M297.217,160.322a.619.619,0,0,0-.619.619v.661a.619.619,0,1,0,1.237,0v-.661A.619.619,0,0,0,297.217,160.322Z" transform="translate(-296.598 -160.322)"/></g><g transform="translate(13.886 17.853)"><path class="a" d="M229.48,216.619a.618.618,0,0,0-.875-.006,2.727,2.727,0,0,1-3.1,0,.619.619,0,0,0-.869.881,3.9,3.9,0,0,0,4.836,0A.618.618,0,0,0,229.48,216.619Z" transform="translate(-224.454 -216.435)"/></g><g transform="translate(11.241 11.241)"><path class="a" d="M194.331,136.274h-1.322a.619.619,0,1,0,0,1.237h1.322a.619.619,0,1,0,0-1.237Z" transform="translate(-192.39 -136.274)"/></g><g transform="translate(19.175 11.241)"><path class="a" d="M290.523,136.274H289.2a.619.619,0,0,0,0,1.237h1.322a.619.619,0,0,0,0-1.237Z" transform="translate(-288.582 -136.274)"/></g><g transform="translate(0)"><path class="a" d="M85.852,29.467,81.393,28.1a1.418,1.418,0,0,0-.786-1.355l-2.758-1.379V23.4a9.228,9.228,0,0,0,3.878-6.29H82.1a2.344,2.344,0,0,0,2.354-2.04,2.268,2.268,0,0,0-1.311-2.295V5.908a4.591,4.591,0,0,0-4.586-4.586h-.1A7.8,7.8,0,0,0,73.883,0a15.772,15.772,0,0,0-7.7,1.737,26.83,26.83,0,0,1-3.843,1.484.619.619,0,0,0-.4.832,5.613,5.613,0,0,0,1.008,1.466,5.06,5.06,0,0,0-.891,3.254V12.8a2.257,2.257,0,0,0,.949,4.307h.462A9.225,9.225,0,0,0,67.355,23.4v1.965L64.6,26.741a1.419,1.419,0,0,0-.786,1.355l-4.459,1.371a4.563,4.563,0,0,0-3.238,4.383v7.764a.619.619,0,0,0,1.237,0V33.851a3.332,3.332,0,0,1,2.365-3.2l4.638-1.426.819,1.092-.93.93a1.939,1.939,0,0,0-.364,2.241l1.771,3.542H63.964v-.7a.619.619,0,1,0-1.237,0v.7H60.039a.619.619,0,0,0-.619.619v3.967a.619.619,0,0,0,.619.619h6.612a.619.619,0,0,0,.619-.619V40.268l.812,1.623a.619.619,0,0,0,1.107-.553l-4.2-8.4a.7.7,0,0,1,.132-.812l1.31-1.31A.619.619,0,0,0,66.485,30l-1.4-1.869a.191.191,0,0,1,.067-.285l2.437-1.218,1.72,5.9a.619.619,0,1,0,1.188-.346l-.271-.93a7.239,7.239,0,0,0,4.756,0L72.6,39.4l-1.335-4.578a.619.619,0,1,0-1.188.346l1.929,6.614a.619.619,0,0,0,1.188,0L77.617,26.63l2.437,1.218a.191.191,0,0,1,.067.285L78.72,30a.619.619,0,0,0,.057.809l1.31,1.31a.7.7,0,0,1,.132.812l-4.2,8.4a.619.619,0,1,0,1.107.553l4.2-8.4a1.939,1.939,0,0,0-.364-2.241l-.93-.93.819-1.092,4.638,1.426a3.332,3.332,0,0,1,2.365,3.2v7.763a.619.619,0,0,0,1.237,0V33.851A4.563,4.563,0,0,0,85.852,29.467ZM66.032,41H60.657v-2.73h2.069v.043a.619.619,0,1,0,1.237,0v-.043h2.069ZM66.7,2.864a14.572,14.572,0,0,1,7.184-1.627c2.282,0,4.322.955,4.744,2.222A.619.619,0,0,0,79.8,3.068a2.917,2.917,0,0,0-.126-.314A3.354,3.354,0,0,1,81.9,5.908v6.655h-.7a.7.7,0,0,1-.7-.7V11.2a7.882,7.882,0,0,0-2.165-5.066.619.619,0,0,0-.624-.153c-3.434,1.085-8.276,2-11.841.195a6.655,6.655,0,0,1-2.412-2A30.426,30.426,0,0,0,66.7,2.864Zm9.913,22.793L75.43,29.708a6,6,0,0,1-5.657,0l-1.182-4.052V24.122a9.2,9.2,0,0,0,8.02,0ZM72.6,23.8a7.986,7.986,0,0,1-7.977-7.977.619.619,0,1,0-1.237,0v.043h-.373a1.035,1.035,0,0,1-1.029-1.143,1.1,1.1,0,0,1,1.123-.926h.9a1.943,1.943,0,0,0,1.941-1.941V9.524a.619.619,0,0,0-1.237,0v2.335a.7.7,0,0,1-.7.7h-.7V8.774a4.17,4.17,0,0,1,.566-2.409,8.5,8.5,0,0,0,1.34.864,11.549,11.549,0,0,0,4.96,1.2,23.414,23.414,0,0,0,7.526-1.153,6.52,6.52,0,0,1,1.563,3.92v.661A1.943,1.943,0,0,0,81.2,13.8h.992a1.035,1.035,0,0,1,1.029,1.143,1.1,1.1,0,0,1-1.123.926h-.279v-.036a.619.619,0,0,0-.618-.619h0a.619.619,0,0,0-.619.618A7.988,7.988,0,0,1,72.6,23.8Z" transform="translate(-56.114 0)"/></g><g transform="translate(25.127 35.706)"><path class="a" d="M364.653,434.524h-1.034V433.49a.619.619,0,0,0-1.237,0v1.034h-1.034a.619.619,0,1,0,0,1.237h1.034V436.8a.619.619,0,1,0,1.237,0v-1.034h1.034a.619.619,0,1,0,0-1.237Z" transform="translate(-360.728 -432.871)"/></g></svg>