<svg xmlns="http://www.w3.org/2000/svg" width="38.599" height="42.12" viewBox="0 0 38.599 42.12"><defs><style>.a{fill:#fff;}</style></defs><g transform="translate(0 0)"><path class="a" d="M419.1,411.732a.617.617,0,0,0-.617.617v7.015a.617.617,0,1,0,1.234,0v-7.015A.617.617,0,0,0,419.1,411.732Z" transform="translate(-385.814 -377.86)"/><path class="a" d="M240.914,411.732a.617.617,0,0,0-.617.617v7.015a.617.617,0,1,0,1.234,0v-7.015A.617.617,0,0,0,240.914,411.732Z" transform="translate(-222.289 -377.86)"/><path class="a" d="M50.162,24.7V23.93a7.96,7.96,0,0,0,4.879-5.815c.084.007.168.011.252.011A3.122,3.122,0,0,0,57.2,12.534V9.078c.009-.02.018-.04.026-.06a4.867,4.867,0,0,0,.334-2.364c-.027-.254-.064-.51-.108-.759A7.156,7.156,0,0,0,50.378,0h-.124a.617.617,0,0,0,0,1.234h.124a5.923,5.923,0,0,1,5.862,4.875c.039.223.072.451.1.678a3.63,3.63,0,0,1-.249,1.763,3.592,3.592,0,0,1-3.335,2.237H41.961a3.593,3.593,0,0,1-3.334-2.233l0-.005a3.627,3.627,0,0,1-.249-1.764c.025-.226.057-.453.1-.676a5.923,5.923,0,0,1,5.862-4.875h3.137a.617.617,0,0,0,0-1.234H44.334a7.155,7.155,0,0,0-7.077,5.894c-.044.249-.08.5-.108.757a4.864,4.864,0,0,0,.336,2.37l0,.005.021.049v3.458a3.122,3.122,0,0,0,1.911,5.592c.078,0,.156,0,.235-.01a7.872,7.872,0,0,0,4.9,5.827V24.7a10.872,10.872,0,0,0-6.161,2.708l-4.9-4.9a.617.617,0,0,0-.436-.181H22.019a.617.617,0,1,0,0,1.234H32.8l4.715,4.715a10.909,10.909,0,0,0-2.8,7.3V37a.617.617,0,1,0,1.234,0V35.579a9.677,9.677,0,0,1,2.443-6.428l.24.24a.617.617,0,0,0,.873-.873l-.238-.238a9.643,9.643,0,0,1,5.287-2.342v.746a2.806,2.806,0,0,0,5.612,0v-.747a9.718,9.718,0,0,1,8.605,9.64V41.5A.617.617,0,0,0,60,41.5V35.579A10.954,10.954,0,0,0,50.162,24.7Zm5.131-7.806-.1,0c.006-.122.009-.244.009-.367V13.118c.031,0,.061,0,.092,0a1.89,1.89,0,1,1,0,3.779Zm.677-6.093v1.154a3.12,3.12,0,0,0-.677-.075l-.092,0v-.174c0-.115,0-.229-.008-.344a4.809,4.809,0,0,0,.777-.564Zm-17.226,0a4.813,4.813,0,0,0,.777.564c-.005.115-.008.23-.008.345v.174l-.091,0a3.122,3.122,0,0,0-.677.075Zm.677,6.094a1.89,1.89,0,1,1,0-3.779c.031,0,.061,0,.091,0v3.5c0,.092,0,.185.005.276Zm1.325-.279V11.867a4.869,4.869,0,0,0,1.216.154H52.752a4.873,4.873,0,0,0,1.214-.154v4.656a6.674,6.674,0,0,1-6.56,6.7h-.049a6.611,6.611,0,0,1-6.612-6.61Zm6.611,11.643a1.574,1.574,0,0,1-1.572-1.572V24.3a7.921,7.921,0,0,0,1.573.157h.058a7.722,7.722,0,0,0,1.513-.161v2.388a1.573,1.573,0,0,1-1.572,1.572Z" transform="translate(-21.402 0)"/><path class="a" d="M183.8,476.041a.617.617,0,0,0-.617.617v1.724a.617.617,0,1,0,1.234,0v-1.724a.617.617,0,0,0-.617-.617Z" transform="translate(-169.87 -436.879)"/><path class="a" d="M371.276,173.767h.007a.617.617,0,0,0,.007-1.234h-.014a.617.617,0,0,0,0,1.234Z" transform="translate(-341.93 -158.339)"/><path class="a" d="M288.734,172.534h-.007a.62.62,0,1,0,.007,0Z" transform="translate(-266.173 -158.34)"/><path class="a" d="M49.3,307.939H41.5a.617.617,0,0,0,0,1.234h7.8a.617.617,0,0,0,0-1.234Z" transform="translate(-39.279 -282.606)"/><path class="a" d="M86.765,334.273H82.319a.617.617,0,0,0,0,1.234h4.446a.617.617,0,0,0,0-1.234Z" transform="translate(-76.741 -306.774)"/><path class="a" d="M86.765,360.606H82.319a.617.617,0,1,0,0,1.234h4.446a.617.617,0,1,0,0-1.234Z" transform="translate(-76.741 -330.94)"/><path class="a" d="M94.869,398.781H92.9a1.441,1.441,0,0,0-1.44,1.44v1.972a1.441,1.441,0,0,0,1.44,1.44h1.972a1.441,1.441,0,0,0,1.44-1.44v-1.972A1.441,1.441,0,0,0,94.869,398.781Zm.206,3.412a.206.206,0,0,1-.206.206H92.9a.206.206,0,0,1-.206-.206v-1.972a.206.206,0,0,1,.206-.206h1.972a.206.206,0,0,1,.206.206Z" transform="translate(-85.694 -365.975)"/><path class="a" d="M34.579,97.782a8.273,8.273,0,0,0,4.333,3,.945.945,0,0,0,.576,0,8.273,8.273,0,0,0,4.333-3,7,7,0,0,0,.922-1.737,2.374,2.374,0,0,0,.137-.8V93.822a.617.617,0,1,0-1.234,0v1.425a1.143,1.143,0,0,1-.066.384,5.753,5.753,0,0,1-.759,1.427A7.035,7.035,0,0,1,39.2,99.581a7.037,7.037,0,0,1-3.621-2.523,6.042,6.042,0,0,1-.4-.637,3.493,3.493,0,0,1-.422-1.671V89.844L39.2,88.762l4.446,1.083v1.2a.617.617,0,0,0,1.234,0V89.624a.951.951,0,0,0-.728-.927l-4.726-1.151a.962.962,0,0,0-.451,0L34.248,88.7a.951.951,0,0,0-.728.927V94.75a4.73,4.73,0,0,0,.573,2.264,7.336,7.336,0,0,0,.486.768Z" transform="translate(-32.523 -80.32)"/><path class="a" d="M79.095,142.934a.617.617,0,0,0,.617-.617v-.87h.87a.617.617,0,1,0,0-1.234h-.87v-.87a.617.617,0,1,0-1.234,0v.87h-.87a.617.617,0,1,0,0,1.234h.87v.87A.617.617,0,0,0,79.095,142.934Z" transform="translate(-72.418 -127.314)"/><path class="a" d="M309.217,216.146a.617.617,0,1,0-1.233-.044,1.492,1.492,0,0,1-2.981,0,.617.617,0,0,0-1.233.044,2.726,2.726,0,0,0,5.448,0Z" transform="translate(-280.54 -197.778)"/></g></svg>