<svg xmlns="http://www.w3.org/2000/svg" width="40.802" height="43.252" viewBox="0 0 40.802 43.252"><defs><style>.a{fill:#fff;}</style></defs><path class="a" d="M49.327,5.975A20.4,20.4,0,0,0,14.5,20.4a.634.634,0,1,0,1.267,0,19.134,19.134,0,0,1,38.268,0V40.084a1.9,1.9,0,0,1-1.9,1.9H45.883V39.662A1.48,1.48,0,0,0,44.592,38.2L43.5,32.578a14.91,14.91,0,1,0-17.207,0L25.21,38.2a1.48,1.48,0,0,0-1.291,1.465v2.323H17.668a1.9,1.9,0,0,1-1.9-1.9V23.358a.634.634,0,1,0-1.267,0V40.084a3.171,3.171,0,0,0,3.168,3.168H52.134A3.171,3.171,0,0,0,55.3,40.084V20.4A20.268,20.268,0,0,0,49.327,5.975ZM23.792,20.4a11.109,11.109,0,1,1,18.89,7.928L42.271,26.2a1.479,1.479,0,0,0,.825-1.324v-.845a1.48,1.48,0,0,0-1.478-1.478H39.9a1.9,1.9,0,0,0-1.792-2.534h-6.42A1.9,1.9,0,0,0,29.9,22.555H28.185a1.48,1.48,0,0,0-1.478,1.478v.845a1.479,1.479,0,0,0,.825,1.324l-.412,2.127A11.07,11.07,0,0,1,23.792,20.4Zm4.393,4.688a.211.211,0,0,1-.211-.211v-.845a.211.211,0,0,1,.211-.211H41.617a.211.211,0,0,1,.211.211v.845a.211.211,0,0,1-.211.211Zm2.872-3.168a.634.634,0,0,1,.634-.634h6.42a.634.634,0,1,1,0,1.267h-6.42A.634.634,0,0,1,31.057,21.922Zm-2.265,4.435H41.01l1.553,8.025H27.239ZM21.258,20.4a13.643,13.643,0,1,1,21.98,10.8l-.273-1.412a12.376,12.376,0,1,0-16.127,0L26.564,31.2a13.633,13.633,0,0,1-5.306-10.8Zm3.928,19.261a.211.211,0,0,1,.211-.211h13.2a.634.634,0,1,0,0-1.267H26.5l.49-2.534H42.808l.49,2.534H41.551a.634.634,0,0,0,0,1.267H44.4a.211.211,0,0,1,.211.211v2.323H25.186Z" transform="translate(-14.5 0)"/><path class="a" d="M64.569,387.034a2.534,2.534,0,1,0-2.534,2.534A2.537,2.537,0,0,0,64.569,387.034Zm-3.8,0a1.267,1.267,0,1,1,1.267,1.267A1.269,1.269,0,0,1,60.767,387.034Z" transform="translate(-55.699 -352.019)"/><path class="a" d="M392.5,387.034a2.534,2.534,0,1,0,2.534-2.534A2.537,2.537,0,0,0,392.5,387.034Zm2.534-1.267a1.267,1.267,0,1,1-1.267,1.267A1.269,1.269,0,0,1,395.034,385.767Z" transform="translate(-360.568 -352.019)"/></svg>